# xmcd
#
# Track frame offsets:
#	150
#	18182
#	29220
#	42205
#	61148
#	80260
#	94558
#	111710
#	130629
#	149639
#
# Disc length: 2245 seconds
#
# Revision: 0
# Processed by: cddbd v1.5.2PL0 Copyright (c) Steve Scherf et al.
# Submitted via: audiograbber 1.83.01
#
DISCID=8508c30a
DTITLE=Various Artist - CD Tex Vol 56 July 2007
DYEAR=2007
DGENRE=country
TTITLE0=Adam Fears - You Get Me
TTITLE1=The Derailers - Who's Gonna Mow Your Grass
TTITLE2=Trent Summar - Really Never Loved Her Anyway
TTITLE3=Chute Nine - Mexican Dog (radio edit)
TTITLE4=Chute Nine - Mexican Dog (explicit)
TTITLE5=Julie Ingram - Anytime Anywhere
TTITLE6=Mark McKinney - Comfortable In This Skin
TTITLE7=David Lavender - 27 Miles
TTITLE8=Bill Wence With Sisters Morales - Angelene
TTITLE9=Kyle Hunt Band - Queen Of The Honky Tonks
EXTD=
EXTT0=
EXTT1=
EXTT2=
EXTT3=
EXTT4=
EXTT5=
EXTT6=
EXTT7=
EXTT8=
EXTT9=
PLAYORDER=
